<?xml version="1.0" encoding="UTF-8" standalone="no"?><svg id="Layer_2" style="enable-background:new 0 0 1563 839.6" xmlns="http://www.w3.org/2000/svg" xml:space="preserve" viewBox="0 0 1563 839.6" version="1.1" y="0px" x="0px" xmlns:xlink="http://www.w3.org/1999/xlink"><style type="text/css">.st0{fill:#FFFFFF;}</style><path class="st0" d="m78.6 53.1c0.8-2 2.3-4.6 2.4-4.7-0.1 0-2.8 1.5-4.7 2.3l-16.1 6.9 11.6 11.6 6.8-16.1z"/><path class="st0" d="m70.1 73.1l-13.8-13.8-8.9 3.8c1.5 4.4 4 8.4 7.4 11.8 3.3 3.3 7.2 5.8 11.5 7.3l3.8-9.1z"/><path class="st0" d="m98.6 31.1c-5.8-5.9-13.6-9.1-21.9-9.1s-16.1 3.2-21.9 9.1c-5.9 5.9-9.1 13.6-9.1 21.9 0 2.1 0.2 4.2 0.6 6.2l40.3-16.8 0.5 0.5-16.6 40.5c2 0.4 4.1 0.6 6.2 0.6 8.3 0 16.1-3.2 21.9-9.1 5.9-5.9 9.1-13.6 9.1-21.9s-3.2-16.1-9.1-21.9z"/><path class="st0" d="m47.4 63.2c1.5 4.4 4 8.4 7.4 11.8 3.3 3.3 7.2 5.8 11.5 7.3l3.9-9.1-13.9-13.9-8.9 3.9z"/><path class="st0" d="m78.6 53.1c0.8-2 2.3-4.6 2.4-4.7-0.1 0-2.8 1.5-4.7 2.3l-16.1 6.9 11.6 11.6 6.8-16.1z"/><path class="st0" d="m98.6 31.1c-5.8-5.9-13.6-9.1-21.9-9.1s-16.1 3.2-21.9 9.1c-5.9 5.9-9.1 13.6-9.1 21.9 0 2.1 0.2 4.2 0.6 6.2l40.3-16.8 0.5 0.5-16.6 40.5c2 0.4 4.1 0.6 6.2 0.6 8.3 0 16.1-3.2 21.9-9.1 5.9-5.9 9.1-13.6 9.1-21.9s-3.2-16.1-9.1-21.9z"/><path class="st0" d="m109 20.7c-17.8-17.8-46.7-17.8-64.5 0s-17.8 46.7 0 64.5 46.7 17.8 64.5 0 17.8-46.6 0-64.5zm-7.5 57.1c-6.7 6.6-15.4 10.2-24.8 10.2s-18.1-3.6-24.7-10.2c-6.7-6.7-10.3-15.4-10.3-24.8 0-9.3 3.6-18.1 10.3-24.7 6.6-6.7 15.4-10.3 24.7-10.3s18.1 3.6 24.7 10.3c6.6 6.6 10.3 15.4 10.3 24.7 0 9.4-3.6 18.1-10.2 24.8z"/><path class="st0" d="m162.7 37.5h0.5l13.3 30.6h-4.9l-2.2-5.5h-12.9l-2.2 5.5h-4.5l12.9-30.6zm5 21.2l-3.3-8.2c-0.7-1.6-1.5-4.2-1.5-4.5 0 0.1-0.8 2.7-1.5 4.5l-3.3 8.2h9.6z"/><path class="st0" d="m188.6 37.8h10.2c6.2 0 11 2.9 11 9.6 0 4.5-2.5 7.4-6.2 8.7l7.1 12h-5.4l-6.6-11.2h-5.5v11.2h-4.7v-30.3zm10 15.2c4 0 6.3-1.6 6.3-5.5s-2.4-5.5-6.3-5.5h-5.3v11h5.3z"/><path class="st0" d="m223.2 37.8h19.3v4.2h-14.5v8.9h12.9v4.1h-12.9v9h15.2v4.1h-19.9v-30.3z"/><path class="st0" d="m256.5 37.8h4.7v11.9c0 1.4-0.2 3.3-0.4 4.5 0.7-1.4 1.6-3 2.4-4.1l9.9-12.3h5.3l-10.7 13.4 11.8 16.9h-5.5l-9.3-13.4-3.4 4.1v9.2h-4.7v-30.2z"/><path class="st0" d="m291.7 37.8h4.7v30.3h-4.7v-30.3z"/><path class="st0" d="m311 37.8h10.8c6 0 9 3.5 9 7.9 0 3-1.6 5.5-4.5 6.4 3.7 0.8 5.9 3.2 5.9 7.4 0 4.9-3.3 8.6-9.6 8.6h-11.6v-30.3zm10.5 12.6c3.2 0 4.6-1.7 4.6-4.2s-1.4-4.2-4.7-4.2h-5.7v8.4h5.8zm0.8 13.6c3.5 0 5.2-2 5.2-4.8 0-3-1.9-4.9-5.4-4.9h-6.3v9.7h6.5z"/><path class="st0" d="m343.6 53c0-9.1 7-15.6 15.7-15.6 8.6 0 15.6 6.5 15.6 15.6s-7 15.6-15.6 15.6c-8.7 0-15.7-6.5-15.7-15.6zm26.5 0c0-6.5-4.5-11.3-10.8-11.3s-10.8 4.9-10.8 11.3c0 6.5 4.5 11.3 10.8 11.3s10.8-4.8 10.8-11.3z"/></svg>