<?xml version="1.0" encoding="utf-8"?>
<!-- Generator: Adobe Illustrator 21.1.0, SVG Export Plug-In . SVG Version: 6.00 Build 0)  -->
<svg version="1.1" id="Layer_1" xmlns="http://www.w3.org/2000/svg" xmlns:xlink="http://www.w3.org/1999/xlink" x="0px" y="0px"
	 width="21px" height="20px" viewBox="0 0 21 20" style="enable-background:new 0 0 21 20;" xml:space="preserve">
<style type="text/css">
	.st0{fill:#0A5AE4;}
</style>
<path class="st0" d="M17.7,3h-1.8V1c0-0.5-0.5-1-1-1c-0.5,0-1,0.5-1,1v2H7V1c0-0.5-0.5-1-1-1S5,0.5,5,1v2H3.2c-1.7,0-3,1.3-3,3V17
	c0,1.7,1.3,3,3,3h14.7c1.7,0,3-1.3,3-3V5.8C20.7,4.1,19.3,3,17.7,3z M3.2,4.8h14.7c0.5,0,1,0.5,1,1v2H2.3c0,0,0,0-0.2,0v-2
	C2.2,5.3,2.5,4.8,3.2,4.8z M17.7,17.8H3.2c-0.5,0-1-0.5-1-1V9.8c0,0,0,0,0.2,0h16.5V17C18.7,17.5,18.3,17.8,17.7,17.8z"/>
</svg>
