<?xml version="1.0" encoding="utf-8"?>
<!-- Generator: Adobe Illustrator 21.1.0, SVG Export Plug-In . SVG Version: 6.00 Build 0)  -->
<svg version="1.1" id="Layer_1" xmlns="http://www.w3.org/2000/svg" xmlns:xlink="http://www.w3.org/1999/xlink" x="0px" y="0px"
	 width="18px" height="21px" viewBox="0 0 18 21" style="enable-background:new 0 0 18 21;" xml:space="preserve">
<style type="text/css">
	.st0{fill:#0A5AE4;}
</style>
<g>
	<path class="st0" d="M2.9,14.9L9,21l6.1-6.1c3.4-3.4,3.4-8.8,0-12.3s-8.8-3.4-12.3,0S-0.6,11.4,2.9,14.9z M13.8,3.9
		c2.7,2.7,2.7,6.9,0,9.6L9,18.3l-4.8-4.8c-2.7-2.7-2.7-6.9,0-9.6S11.1,1.2,13.8,3.9z"/>
	<path class="st0" d="M9,6.6c-1.3,0-2.4,1-2.4,2.4s1,2.2,2.4,2.2s2.4-1,2.4-2.4S10.3,6.6,9,6.6z M9,9.5C8.7,9.5,8.6,9.2,8.6,9
		c0-0.3,0.1-0.4,0.4-0.4c0.3,0,0.4,0.1,0.4,0.4C9.4,9.2,9.3,9.5,9,9.5z"/>
</g>
</svg>
