<?xml version="1.0" encoding="utf-8"?>
<!-- Generator: Adobe Illustrator 21.1.0, SVG Export Plug-In . SVG Version: 6.00 Build 0)  -->
<svg version="1.1" id="Layer_1" xmlns="http://www.w3.org/2000/svg" xmlns:xlink="http://www.w3.org/1999/xlink" x="0px" y="0px"
	 width="20px" height="20px" viewBox="0 0 20 20" style="enable-background:new 0 0 20 20;" xml:space="preserve">
<style type="text/css">
	.st0{fill:#0A5AE4;}
</style>
<path class="st0" d="M10,0C4.5,0,0,4.5,0,10s4.5,10,10,10s10-4.5,10-10S15.5,0,10,0z M10,18.2c-4.5,0-8.2-3.7-8.2-8.2
	S5.5,1.8,10,1.8s8.2,3.7,8.2,8.2S14.5,18.2,10,18.2z M13.4,12.2c0.3,0.3,0.3,0.9,0,1.2c-0.2,0.2-0.5,0.3-0.6,0.3
	c-0.3,0-0.5-0.2-0.6-0.3l-2.8-2.8c-0.2-0.2-0.3-0.3-0.3-0.6V4.6c0-0.5,0.5-0.9,0.9-0.9s0.9,0.3,0.9,0.9v5.1L13.4,12.2z"/>
</svg>
