{"asset":{"generator":"3D Builder","version":"2.0"},"scene":0,"scenes":[{"nodes":[0]}],"nodes":[{"children":[1,2]},{"mesh":0,"matrix":[0.99999994039535522,0,0,0,0,-1.1920928244535389E-7,-0.99999982118606567,0,0,0.99999982118606567,-1.1920928244535389E-7,0,0,0.13153266906738281,-1.5679917808597565E-8,1]},{"mesh":1,"matrix":[0.99999994039535522,0,0,0,0,-1.1920928244535389E-7,-0.99999982118606567,0,0,0.99999982118606567,-1.1920928244535389E-7,0,0,0.13153266906738281,-1.5679917808597565E-8,1]}],"meshes":[{"primitives":[{"attributes":{"POSITION":0,"TEXCOORD_0":1},"mode":4,"indices":2,"material":0}]},{"primitives":[{"attributes":{"POSITION":3,"TEXCOORD_0":4},"mode":4,"indices":5,"material":0}]}],"materials":[{"pbrMetallicRoughness":{"baseColorFactor":[1,1,1,1],"metallicFactor":0,"roughnessFactor":1,"baseColorTexture":{"index":0,"texCoord":0}},"alphaMode":"OPAQUE"}],"textures":[{"source":0,"sampler":0}],"images":[{"uri":"POC-2export_Albedo.png"}],"samplers":[{"magFilter":9729,"wrapS":10497,"wrapT":10497}],"accessors":[{"bufferView":0,"byteOffset":0,"count":342,"componentType":5126,"type":"VEC3","min":[-0.10128842294216156,0.22158996760845184,-0.131532683968544],"max":[0.10092784464359283,0.36356532573699951,0.044604651629924774]},{"bufferView":1,"byteOffset":0,"count":342,"componentType":5126,"type":"VEC2"},{"bufferView":2,"byteOffset":0,"count":1602,"componentType":5125,"type":"SCALAR"},{"bufferView":3,"byteOffset":0,"count":749,"componentType":5126,"type":"VEC3","min":[-0.048535216599702835,0.000691601017024368,-0.048389028757810593],"max":[0.053104445338249207,0.28305244445800781,0.052031490951776505]},{"bufferView":4,"byteOffset":0,"count":749,"componentType":5126,"type":"VEC2"},{"bufferView":5,"byteOffset":0,"count":3660,"componentType":5125,"type":"SCALAR"}],"bufferViews":[{"buffer":0,"byteOffset":0,"byteLength":4104,"byteStride":12,"target":34962},{"buffer":0,"byteOffset":4104,"byteLength":2736,"byteStride":8,"target":34962},{"buffer":0,"byteOffset":6840,"byteLength":6408,"target":34963},{"buffer":0,"byteOffset":13248,"byteLength":8988,"byteStride":12,"target":34962},{"buffer":0,"byteOffset":22236,"byteLength":5992,"byteStride":8,"target":34962},{"buffer":0,"byteOffset":28228,"byteLength":14640,"target":34963}],"buffers":[{"byteLength":42868,"uri":"POC2.bin"}]}