{"asset":{"generator":"3D Builder","version":"2.0"},"scene":0,"scenes":[{"nodes":[0,1]}],"nodes":[{"mesh":0,"matrix":[29.089685440063477,0,0,0,0,29.089485168457031,0,0,0,1.6382993635488674E-5,29.089481353759766,0,0.0052444115281105042,0.029358686879277229,-2.6698946952819824,1]},{"mesh":1,"matrix":[29.089685440063477,0,0,0,0,29.089485168457031,0,0,0,1.6382993635488674E-5,29.089481353759766,0,0.0052444115281105042,0.029358686879277229,-2.6698946952819824,1]}],"meshes":[{"primitives":[{"attributes":{"POSITION":0,"TEXCOORD_0":1},"mode":4,"indices":2,"material":0}]},{"primitives":[{"attributes":{"POSITION":3,"TEXCOORD_0":4},"mode":4,"indices":5,"material":0}]}],"materials":[{"pbrMetallicRoughness":{"baseColorFactor":[1,1,1,1],"metallicFactor":0,"roughnessFactor":1,"baseColorTexture":{"index":0,"texCoord":0}},"alphaMode":"OPAQUE"}],"textures":[{"source":0,"sampler":0}],"images":[{"uri":"POC-2export_Albedo.png"}],"samplers":[{"magFilter":9729,"wrapS":10497,"wrapT":10497}],"accessors":[{"bufferView":0,"byteOffset":0,"count":342,"componentType":5126,"type":"VEC3","min":[-0.10128841549158096,0.22158989310264587,1.4901161193847656E-8],"max":[0.10092783719301224,0.36356520652770996,0.1761372983455658]},{"bufferView":1,"byteOffset":0,"count":342,"componentType":5126,"type":"VEC2"},{"bufferView":2,"byteOffset":0,"count":1602,"componentType":5125,"type":"SCALAR"},{"bufferView":3,"byteOffset":0,"count":749,"componentType":5126,"type":"VEC3","min":[-0.048535212874412537,0.00069160078419372439,0.083143644034862518],"max":[0.053104441612958908,0.28305235505104065,0.18356412649154663]},{"bufferView":4,"byteOffset":0,"count":749,"componentType":5126,"type":"VEC2"},{"bufferView":5,"byteOffset":0,"count":3660,"componentType":5125,"type":"SCALAR"}],"bufferViews":[{"buffer":0,"byteOffset":0,"byteLength":4104,"byteStride":12,"target":34962},{"buffer":0,"byteOffset":4104,"byteLength":2736,"byteStride":8,"target":34962},{"buffer":0,"byteOffset":6840,"byteLength":6408,"target":34963},{"buffer":0,"byteOffset":13248,"byteLength":8988,"byteStride":12,"target":34962},{"buffer":0,"byteOffset":22236,"byteLength":5992,"byteStride":8,"target":34962},{"buffer":0,"byteOffset":28228,"byteLength":14640,"target":34963}],"buffers":[{"byteLength":42868,"uri":"POC2.bin"}]}