{"asset":{"generator":"3D Builder","version":"2.0"},"scene":0,"scenes":[{"nodes":[0,1]}],"nodes":[{"mesh":0,"matrix":[0.54413551092147827,0,0,0,0,-6.48660076763008E-8,-0.5441354513168335,0,0,0.5441354513168335,-6.48660076763008E-8,0,1.5732332769857749E-8,3.4156022366005345E-7,1.4343738712341292E-6,1]},{"mesh":1,"matrix":[0.54413551092147827,0,0,0,0,-6.48660076763008E-8,-0.5441354513168335,0,0,0.5441354513168335,-6.48660076763008E-8,0,1.5732332769857749E-8,3.4156022366005345E-7,1.4343738712341292E-6,1]}],"meshes":[{"primitives":[{"attributes":{"POSITION":0,"TEXCOORD_0":1},"mode":4,"indices":2,"material":0}]},{"primitives":[{"attributes":{"POSITION":3,"TEXCOORD_0":4},"mode":4,"indices":5,"material":0}]}],"materials":[{"pbrMetallicRoughness":{"baseColorFactor":[1,1,1,1],"metallicFactor":0,"roughnessFactor":1,"baseColorTexture":{"index":0,"texCoord":0}},"alphaMode":"OPAQUE"}],"textures":[{"source":0,"sampler":0}],"images":[{"uri":"POC-2export_Albedo.png"}],"samplers":[{"magFilter":9729,"wrapS":10497,"wrapT":10497}],"accessors":[{"bufferView":0,"byteOffset":0,"count":342,"componentType":5126,"type":"VEC3","min":[-1.8419060707092285,-1.5366965532302856,4.02410364151001],"max":[1.8419053554534912,1.6719962358474731,6.610468864440918]},{"bufferView":1,"byteOffset":0,"count":342,"componentType":5126,"type":"VEC2"},{"bufferView":2,"byteOffset":0,"count":1602,"componentType":5125,"type":"SCALAR"},{"bufferView":3,"byteOffset":0,"count":749,"componentType":5126,"type":"VEC3","min":[-0.88089114427566528,-1.6719917058944702,-6.2771141529083252E-7],"max":[0.97069752216339111,0.15736806392669678,5.143765926361084]},{"bufferView":4,"byteOffset":0,"count":749,"componentType":5126,"type":"VEC2"},{"bufferView":5,"byteOffset":0,"count":3660,"componentType":5125,"type":"SCALAR"}],"bufferViews":[{"buffer":0,"byteOffset":0,"byteLength":4104,"byteStride":12,"target":34962},{"buffer":0,"byteOffset":4104,"byteLength":2736,"byteStride":8,"target":34962},{"buffer":0,"byteOffset":6840,"byteLength":6408,"target":34963},{"buffer":0,"byteOffset":13248,"byteLength":8988,"byteStride":12,"target":34962},{"buffer":0,"byteOffset":22236,"byteLength":5992,"byteStride":8,"target":34962},{"buffer":0,"byteOffset":28228,"byteLength":14640,"target":34963}],"buffers":[{"byteLength":42868,"uri":"POC2.bin"}]}