{"asset":{"generator":"3D Builder","version":"2.0"},"scene":0,"scenes":[{"nodes":[0,1,2,3]}],"nodes":[{"mesh":0,"matrix":[0.54413551092147827,0,0,0,0,-6.48660076763008E-8,-0.5441354513168335,0,0,0.5441354513168335,-6.48660076763008E-8,0,-0.1776108592748642,3.8757335119044E-7,1.4343738712341292E-6,1]},{"mesh":1,"matrix":[0.54413551092147827,0,0,0,0,-6.48660076763008E-8,-0.5441354513168335,0,0,0.5441354513168335,-6.48660076763008E-8,0,-0.1776108592748642,3.8757335119044E-7,1.4343738712341292E-6,1]},{"mesh":2,"matrix":[78.097732543945313,0,0,0,0,-2.7528662030817941E-5,-230.9271240234375,0,0,0.99999982118606567,-1.1920928244535389E-7,0,-1.7706872224807739,2.1124242266523652E-6,17.720296859741211,1]},{"mesh":3,"matrix":[0.023736210539937019,1.2190832787695172E-9,0.010226410813629627,0,0.010074089281260967,-0.0044442922808229923,-0.023382645100355148,0,0.0017584975576028228,0.025460466742515564,-0.0040815961547195911,0,1.7229390144348145,1.539441704750061,1.8588509559631348,1]}],"meshes":[{"primitives":[{"attributes":{"POSITION":0,"TEXCOORD_0":1},"mode":4,"indices":2,"material":0}]},{"primitives":[{"attributes":{"POSITION":3,"TEXCOORD_0":4},"mode":4,"indices":5,"material":0}]},{"primitives":[{"attributes":{"POSITION":6},"mode":4,"indices":7,"material":1}]},{"primitives":[{"attributes":{"POSITION":8,"TEXCOORD_0":9},"mode":4,"indices":10,"material":2}]}],"materials":[{"pbrMetallicRoughness":{"baseColorFactor":[1,1,1,1],"metallicFactor":0,"roughnessFactor":1,"baseColorTexture":{"index":0,"texCoord":0}},"alphaMode":"OPAQUE"},{"name":"Green","pbrMetallicRoughness":{"baseColorFactor":[0.015208514407277107,0.49693304300308228,0.072271861135959625,1],"metallicFactor":0,"roughnessFactor":1},"alphaMode":"OPAQUE"},{"pbrMetallicRoughness":{"baseColorFactor":[1,1,1,1],"metallicFactor":1,"roughnessFactor":1,"baseColorTexture":{"index":1,"texCoord":0},"metallicRoughnessTexture":{"index":2,"texCoord":0}},"alphaMode":"OPAQUE"}],"textures":[{"source":0,"sampler":0},{"source":1,"sampler":0},{"source":2,"sampler":0}],"images":[{"uri":"POC-2export_Albedo.png"},{"uri":"1413_1024x1024_373769621576435952.png"},{"uri":"1415_1024x1024_10351822693837421737.png"}],"samplers":[{"magFilter":9729,"wrapS":10497,"wrapT":10497}],"accessors":[{"bufferView":0,"byteOffset":0,"count":342,"componentType":5126,"type":"VEC3","min":[-1.8419060707092285,-1.5366965532302856,4.02410364151001],"max":[1.8419053554534912,1.6719962358474731,6.610468864440918]},{"bufferView":1,"byteOffset":0,"count":342,"componentType":5126,"type":"VEC2"},{"bufferView":2,"byteOffset":0,"count":1602,"componentType":5125,"type":"SCALAR"},{"bufferView":3,"byteOffset":0,"count":749,"componentType":5126,"type":"VEC3","min":[-0.88089114427566528,-1.6719917058944702,-6.2771141529083252E-7],"max":[0.97069752216339111,0.15736806392669678,5.143765926361084]},{"bufferView":4,"byteOffset":0,"count":749,"componentType":5126,"type":"VEC2"},{"bufferView":5,"byteOffset":0,"count":3660,"componentType":5125,"type":"SCALAR"},{"bufferView":6,"byteOffset":0,"count":8,"componentType":5126,"type":"VEC3","min":[0,0.042998004704713821,0],"max":[0.039998002350330353,0.082998007535934448,0.039998002350330353]},{"bufferView":7,"byteOffset":0,"count":36,"componentType":5125,"type":"SCALAR"},{"bufferView":8,"byteOffset":0,"count":179,"componentType":5126,"type":"VEC3","min":[-72.932327270507813,-275.82489013671875,-104.23810577392578],"max":[79.232009887695313,-115.98397827148437,102.25565338134766]},{"bufferView":9,"byteOffset":0,"count":179,"componentType":5126,"type":"VEC2"},{"bufferView":10,"byteOffset":0,"count":756,"componentType":5125,"type":"SCALAR"}],"bufferViews":[{"buffer":0,"byteOffset":0,"byteLength":4104,"byteStride":12,"target":34962},{"buffer":0,"byteOffset":4104,"byteLength":2736,"byteStride":8,"target":34962},{"buffer":0,"byteOffset":6840,"byteLength":6408,"target":34963},{"buffer":0,"byteOffset":13248,"byteLength":8988,"byteStride":12,"target":34962},{"buffer":0,"byteOffset":22236,"byteLength":5992,"byteStride":8,"target":34962},{"buffer":0,"byteOffset":28228,"byteLength":14640,"target":34963},{"buffer":0,"byteOffset":42868,"byteLength":96,"byteStride":12,"target":34962},{"buffer":0,"byteOffset":42964,"byteLength":144,"target":34963},{"buffer":0,"byteOffset":43108,"byteLength":2148,"byteStride":12,"target":34962},{"buffer":0,"byteOffset":45256,"byteLength":1432,"byteStride":8,"target":34962},{"buffer":0,"byteOffset":46688,"byteLength":3024,"target":34963}],"buffers":[{"byteLength":49712,"uri":"POC3.bin"}]}