<?xml version="1.0" standalone="no"?>
<!DOCTYPE svg PUBLIC "-//W3C//DTD SVG 1.1//EN" "http://www.w3.org/Graphics/SVG/1.1/DTD/svg11.dtd">
<!--Generator: Xara Designer (www.xara.com), SVG filter version: 6.0.0.4-->
<svg stroke-width="0.501" stroke-linejoin="bevel" fill-rule="evenodd" xmlns:xlink="http://www.w3.org/1999/xlink" xmlns="http://www.w3.org/2000/svg" version="1.1" overflow="visible" width="42.376pt" height="44.258pt" viewBox="0 0 42.376 44.258">
 <defs>
	</defs>
 <g id="Document" fill="none" stroke="black" font-family="Times New Roman" font-size="16" transform="scale(1 -1)">
  <g id="Spread" transform="translate(0 -44.258)">
   <g id="Layer 1">
    <g id="Group" stroke="#ef5f5f" fill="#ff7f7f" fill-rule="evenodd" stroke-linejoin="round" stroke-linecap="round">
     <path d="M 17.272,33.9 C 16.351,33.891 15.172,34.182 13.738,34.773 C 12.303,35.364 11.207,35.89 10.449,36.352 C 9.692,36.814 8.499,37.722 6.871,39.075 C 5.243,40.428 4.133,41.262 3.54,41.576 C 2.947,41.89 2.614,41.704 2.54,41.017 C 2.466,40.331 2.977,38.162 4.074,34.513 C 5.17,30.863 5.982,27.551 6.509,24.578 C 7.037,21.606 7.657,18.75 8.368,16.012 C 9.08,13.274 9.484,11.285 9.58,10.043 L 9.724,8.181" fill="none" stroke-width="5.08"/>
     <path d="M 14.289,24.75 C 13.688,24.804 12.926,24.733 12.005,24.537 L 10.622,24.243" fill="none" stroke-width="6.321"/>
     <path d="M 19.128,24.223 C 15.257,18.409 14.116,14.397 15.705,12.186 C 17.295,9.975 18.762,9.539 20.107,10.876 C 21.453,12.214 22.502,13.774 23.253,15.554 C 24.005,17.335 24.136,18.734 23.646,19.751 C 23.156,20.768 22.435,21.697 21.483,22.536 L 20.054,23.795" fill="none" stroke-width="3.759"/>
     <path d="M 21.526,27.922 C 21.398,28.075 21.019,28.275 20.386,28.522 C 19.754,28.768 19.204,28.942 18.735,29.044 C 18.267,29.146 17.953,29.193 17.796,29.186 L 17.561,29.175" fill="none" stroke-width="2.702"/>
     <path d="M 23.416,35.559 C 23.849,33.336 24.487,31.072 25.328,28.769 C 26.17,26.467 26.987,23.384 27.779,19.522 C 28.572,15.659 29.235,12.79 29.771,10.912 L 30.573,8.095" fill="none" stroke-width="5.733"/>
     <path d="M 24.976,34.562 C 27.606,35.528 29.425,36.008 30.432,36.001 C 31.439,35.995 31.92,35.493 31.873,34.493 C 31.826,33.494 31.392,32.322 30.572,30.976 C 29.751,29.63 29.074,28.685 28.543,28.141 L 27.746,27.325" fill="none" stroke-width="5.126"/>
     <path d="M 28.957,24.558 C 36.455,23.829 40.009,22.703 39.619,21.179 C 39.228,19.655 37.844,17.341 35.468,14.24 L 31.903,9.588" fill="none" stroke-width="5.513"/>
     <path d="M 25.407,3.788 C 24.866,4.252 23.693,4.498 21.889,4.525 C 20.085,4.552 18.58,4.482 17.374,4.314 C 16.169,4.145 15.149,3.726 14.314,3.057 L 13.061,2.054" fill="none" stroke-width="4.109"/>
    </g>
   </g>
  </g>
 </g>
</svg>
